<svg width="39.000000" height="39.000000" viewBox="0 0 39 39" fill="none" xmlns="http://www.w3.org/2000/svg" xmlns:xlink="http://www.w3.org/1999/xlink">
	<desc>
			Created with Pixso.
	</desc>
	<defs/>
	<circle id="Ellipse 4" cx="19.500000" cy="19.500000" r="19.500000" fill="#ECECEC" fill-opacity="1.000000"/>
	<path id="ic-instagram" d="M19.7476 16.4985C17.9572 16.4985 16.4962 17.9597 16.4962 19.75C16.4962 21.5403 17.9572 23.0015 19.7476 23.0015C21.5379 23.0015 22.999 21.5403 22.999 19.75C22.999 17.9597 21.5379 16.4985 19.7476 16.4985ZM29.4993 19.75C29.4993 18.4036 29.5115 17.0693 29.4359 15.7253C29.3602 14.1643 29.0042 12.7788 27.8626 11.6375C26.7186 10.4934 25.3356 10.1396 23.7746 10.0642C22.4282 9.98853 21.094 10.0007 19.75 10.0007C18.4036 10.0007 17.0694 9.98853 15.7254 10.0642C14.1644 10.1396 12.7789 10.4958 11.6374 11.6375C10.4934 12.7812 10.1398 14.1643 10.0641 15.7253C9.98853 17.0718 10.0007 18.406 10.0007 19.75C10.0007 21.094 9.98853 22.4307 10.0641 23.7747C10.1398 25.3357 10.4958 26.7212 11.6374 27.8625C12.7814 29.0066 14.1644 29.3604 15.7254 29.4358C17.0718 29.5115 18.406 29.4993 19.75 29.4993C21.0964 29.4993 22.4306 29.5115 23.7746 29.4358C25.3356 29.3604 26.7211 29.0042 27.8626 27.8625C29.0066 26.7188 29.3602 25.3357 29.4359 23.7747C29.5139 22.4307 29.4993 21.0964 29.4993 19.75ZM19.7476 24.7527C16.9791 24.7527 14.7449 22.5186 14.7449 19.75C14.7449 16.9814 16.9791 14.7473 19.7476 14.7473C22.516 14.7473 24.7502 16.9814 24.7502 19.75C24.7502 22.5186 22.516 24.7527 19.7476 24.7527ZM24.9551 15.7107C24.3088 15.7107 23.7868 15.1887 23.7868 14.5425C23.7868 13.896 24.3088 13.374 24.9551 13.374C25.6015 13.374 26.1235 13.896 26.1235 14.5425C26.1237 14.6958 26.0936 14.8479 26.035 14.9897C25.9763 15.1316 25.8903 15.2605 25.7817 15.3689C25.6732 15.4775 25.5443 15.5635 25.4025 15.6223C25.2606 15.6809 25.1086 15.7109 24.9551 15.7107Z" fill="#31352B" fill-opacity="1.000000" fill-rule="nonzero"/>
</svg>
