<?xml version="1.0" encoding="utf-8"?><svg viewBox="0 0 44 45" xmlns="http://www.w3.org/2000/svg" xmlns:xlink="http://www.w3.org/1999/xlink"><style>:root>svg{display:none}:root>svg:target{display:block}</style><svg viewBox="0 0 24 24" id="arrow-right" xmlns="http://www.w3.org/2000/svg"><path d="M13.121 6.293a1 1 0 0 0 0 1.414L16.413 11 6 11.007a1 1 0 0 0 0 2L16.414 13l-3.293 3.293a1 1 0 1 0 1.414 1.414l3.586-3.585a3 3 0 0 0 0-4.243l-3.586-3.586a1 1 0 0 0-1.414 0Z"/></svg><svg viewBox="0 0 21 20" id="carticon" xmlns="http://www.w3.org/2000/svg"><path d="m1 1.176 2.08.356.963 11.34c.077.926.86 1.636 1.8 1.633h10.909a1.794 1.794 0 0 0 1.785-1.528l.949-6.482a1.328 1.328 0 0 0-1.135-1.501c-.064-.009-14.937-.014-14.937-.014M12.375 8.633h2.773"/><path fill-rule="evenodd" clip-rule="evenodd" d="M5.404 17.932a.54.54 0 0 1 .544.538.541.541 0 0 1-.544.539.541.541 0 0 1-.544-.54.54.54 0 0 1 .544-.537ZM16.685 17.932c.3 0 .545.24.545.538a.542.542 0 0 1-.545.539.541.541 0 0 1-.544-.54.54.54 0 0 1 .544-.537Z"/></svg><svg viewBox="0 0 10 21" id="facebook" xmlns="http://www.w3.org/2000/svg"><path d="M2.547 20.556v-9.631H0V7.457h2.547V4.495C2.547 2.167 4.05.03 7.517.03 8.922.03 9.96.164 9.96.164l-.082 3.239s-1.058-.01-2.213-.01c-1.25 0-1.45.575-1.45 1.532v2.532h3.763l-.164 3.468h-3.6v9.631H2.547Z"/></svg><svg viewBox="0 0 17 16" id="frame" xmlns="http://www.w3.org/2000/svg"><path d="M10.318 14.3a.694.694 0 0 1-.616-.36l-2.041-3.858a.622.622 0 0 1 .05-.66L11.005 5.2 6.538 8.314a.725.725 0 0 1-.7.046L1.757 6.432a.646.646 0 0 1-.379-.618.653.653 0 0 1 .449-.574L14.895.69a.719.719 0 0 1 .724.15c.19.18.252.447.16.685l-4.816 12.35a.684.684 0 0 1-.607.424l-.038.001Z"/></svg><svg viewBox="0 0 44 45" id="icon_asianfood" xmlns="http://www.w3.org/2000/svg"><g clip-path="url(#ea)"><path d="M15.132 13.597h2.124c.552 0 1 .448 1 1v1.464a.645.645 0 1 0 1.29 0v-1.464a2.292 2.292 0 0 0-2.29-2.29h-2.124a.984.984 0 0 1 0-1.966h4.711a2.275 2.275 0 0 0 2.272-2.272 2.275 2.275 0 0 0-2.272-2.272h-3.77a.645.645 0 0 0 0 1.29h3.77a.984.984 0 0 1 0 1.965h-4.711a2.275 2.275 0 0 0-2.273 2.272 2.275 2.275 0 0 0 2.273 2.273ZM7.389 17.922h2.108c.544 0 .987.443.987.988v1.453a.645.645 0 1 0 1.29 0V18.91a2.279 2.279 0 0 0-2.277-2.277H7.39a.972.972 0 0 1 0-1.94h2.465a.645.645 0 0 0 0-1.29H7.389a2.262 2.262 0 0 0-2.26 2.26 2.262 2.262 0 0 0 2.26 2.26ZM25.652 26.842a.645.645 0 1 0 0-1.289.645.645 0 0 0 0 1.29ZM28.832 28.303a.645.645 0 1 0 0-1.289.645.645 0 0 0 0 1.29ZM30.723 30.538a.645.645 0 1 0 0-1.29.645.645 0 0 0 0 1.29ZM28.059 25.295a.644.644 0 1 0 0-1.289.644.644 0 0 0 0 1.29ZM25.91 30.967a.645.645 0 1 0 0-1.289.645.645 0 0 0 0 1.29Z"/><path d="M42.911 22.84h-1.828l.904-1.867A2.507 2.507 0 0 0 44 18.52a2.506 2.506 0 0 0-2.102-2.47c-1.315-2.37-3.885-4.149-7.001-4.86v-.048a.645.645 0 0 0-1.264-.176 13.82 13.82 0 0 0-1.197-.1.644.644 0 0 0-1.163 0c-.405.017-.804.05-1.197.1a.644.644 0 0 0-1.264.176v.049c-3.116.71-5.686 2.49-7.001 4.859a2.506 2.506 0 0 0-2.093 2.685c-2.975.277-5.649 1.52-7.655 3.385h-4.05a.909.909 0 0 0-.69.319H5.43A2.118 2.118 0 0 0 3.473 21.1a2.106 2.106 0 0 0-2.082 2.397 2.107 2.107 0 0 0-1.066 3.104 2.106 2.106 0 0 0 1.778 3.229c.878 0 1.648-.554 1.958-1.337h1.704a.91.91 0 0 0 .586.623l2.02.686a10.898 10.898 0 0 0-.002 1.223c-.316.076-.61.207-.873.383a2.7 2.7 0 0 0-1.51-.46 2.721 2.721 0 0 0-2.717 2.719l.002.068h-.754c-.426 0-.803.239-.985.624-.181.385-.126.828.144 1.156l1.934 2.35c.207.252.514.397.84.397h27.26a.644.644 0 1 0 0-1.29H4.545l-1.604-1.948h39.544l-1.603 1.949h-6.164a.644.644 0 1 0 0 1.289h6.258c.327 0 .633-.145.84-.397l1.934-2.35a1.08 1.08 0 0 0 .144-1.156 1.079 1.079 0 0 0-.984-.624h-.638a5.41 5.41 0 0 0 .64-3.672.645.645 0 0 0-.52-.519 5.409 5.409 0 0 0-5.008 1.731c-.37-.2-.79-.316-1.237-.325v-1.226h.688c1.09 0 1.977-.887 1.977-1.977v-.865h4.1c.6 0 1.088-.488 1.088-1.089V23.93c0-.6-.488-1.088-1.089-1.088ZM6.291 33.737H4.56l-.002-.068a1.43 1.43 0 0 1 2.053-1.284c-.206.382-.323.82-.323 1.284 0 .023.002.045.003.068Zm32.225-1.785a4.116 4.116 0 0 1 3.184-1.194 4.118 4.118 0 0 1-1.005 2.979h-1.063l.881-.88a.644.644 0 1 0-.911-.912l-.914.913a2.71 2.71 0 0 0-.348-.717c.057-.065.115-.127.176-.189ZM25.503 13.972a10.719 10.719 0 0 1 3.309-1.452v.663a.644.644 0 1 0 1.29 0v-.919c.364-.052.735-.086 1.108-.105v1.024a.644.644 0 1 0 1.289 0V12.16c.373.02.743.053 1.109.105v.92a.644.644 0 1 0 1.289 0v-.664c1.206.308 2.333.799 3.309 1.452.95.637 1.724 1.406 2.288 2.256a2.526 2.526 0 0 0-.604.375 2.506 2.506 0 0 0-1.607-.587c-.595 0-1.163.214-1.607.587a2.506 2.506 0 0 0-1.607-.587c-.595 0-1.163.214-1.607.587a2.506 2.506 0 0 0-1.608-.587c-.594 0-1.162.214-1.607.587a2.506 2.506 0 0 0-1.607-.587c-.594 0-1.162.214-1.607.587a2.506 2.506 0 0 0-1.607-.587c-.594 0-1.162.214-1.607.587a2.524 2.524 0 0 0-.605-.375c.565-.85 1.339-1.62 2.29-2.256Zm-3.291 3.333c.43 0 .832.233 1.05.607a.645.645 0 0 0 1.114 0c.217-.374.62-.607 1.05-.607.43 0 .832.233 1.05.607a.644.644 0 0 0 1.115 0c.217-.374.619-.607 1.05-.607.43 0 .832.233 1.049.607a.644.644 0 0 0 1.115 0c.217-.374.62-.607 1.05-.607.43 0 .832.233 1.049.607a.644.644 0 0 0 1.115 0c.217-.374.62-.607 1.05-.607.43 0 .832.233 1.05.607a.645.645 0 0 0 1.114 0c.217-.374.62-.607 1.05-.607.43 0 .832.233 1.05.607a.644.644 0 0 0 1.114 0c.218-.374.62-.607 1.05-.607a1.215 1.215 0 0 1 0 2.427c-.43 0-.832-.232-1.05-.607a.645.645 0 0 0-1.114 0c-.218.375-.62.607-1.05.607-.43 0-.833-.232-1.05-.607a.645.645 0 0 0-1.115 0c-.217.375-.62.607-1.05.607-.43 0-.832-.232-1.049-.607a.644.644 0 0 0-1.115 0c-.217.375-.62.607-1.05.607-.43 0-.832-.232-1.05-.607a.645.645 0 0 0-1.114 0c-.218.375-.62.607-1.05.607-.43 0-.832-.232-1.05-.607a.645.645 0 0 0-1.114 0 1.22 1.22 0 0 1-.54.493 13.364 13.364 0 0 0-4.927-.942 1.215 1.215 0 0 1 1.202-1.37Zm-13.82 6.103h2.472a11.78 11.78 0 0 0-.712.984h-1.76v-.984Zm-2.66 3.796H3.558a.645.645 0 0 0-.643.592.818.818 0 0 1-.81.745.815.815 0 0 1-.519-1.442.644.644 0 0 0 0-.994.813.813 0 1 1 1.33-.697.645.645 0 0 0 .642.592h2.176v1.204Zm.221-2.493H4.061a2.129 2.129 0 0 0-1.36-1.248.813.813 0 1 1 1.583-.327.645.645 0 0 0 .642.59h2.177v.666h-.46a.909.909 0 0 0-.69.319Zm4.48 9.025H7.58a1.43 1.43 0 0 1 1.427-1.497 1.43 1.43 0 0 1 1.428 1.429l-.002.068Zm19.879 0h-2.244l-.002-.068a1.43 1.43 0 0 1 2.439-1.01 2.703 2.703 0 0 0-.196 1.01c0 .023.002.045.003.068Zm-.817-2.786a2.721 2.721 0 0 0-2.719 2.718c0 .023.002.045.003.068H11.722l.002-.068c0-1.273-.88-2.344-2.063-2.638a9.739 9.739 0 0 1-.016-.795l6.592 2.239a4.113 4.113 0 0 0 3.753-.556 4.106 4.106 0 0 0 1.732-3.375c0-.484-.083-.96-.247-1.413a.645.645 0 1 0-1.212.44c.113.311.17.639.17.973a2.83 2.83 0 0 1-1.195 2.326 2.83 2.83 0 0 1-2.587.384l-9.629-3.27v-2.302h10.55c.323 0 .641.054.946.161a.644.644 0 1 0 .427-1.216 4.144 4.144 0 0 0-1.373-.234h-5.845c2.056-2.677 5.438-4.428 9.256-4.428 6.253 0 11.34 4.696 11.34 10.468 0 .206-.006.411-.02.616-.389.108-.743.3-1.042.556a2.705 2.705 0 0 0-1.766-.654Zm4.959 2.786h-2.853a1.43 1.43 0 0 1 1.427-1.497c.787 0 1.428.64 1.428 1.429 0 .023 0 .045-.002.068Zm.404-2.486c-.102.052-.202.11-.297.175a2.704 2.704 0 0 0-.964-.414c.01-.192.016-.385.016-.579 0-.237-.01-.473-.025-.707h1.27v1.524Zm2.665 2.418c0 .023-.002.045-.003.068h-1.777l.002-.068a2.7 2.7 0 0 0-.313-1.266 1.43 1.43 0 0 1 2.09 1.266Zm0-5.92c0 .38-.309.688-.688.688h-3.407c-.098-.53-.232-1.05-.404-1.553h4.499v.865Zm5.188-2.154H32.493a11.526 11.526 0 0 0-.853-1.464h2.735a.645.645 0 0 0 0-1.29h-3.756a12.417 12.417 0 0 0-2.077-1.82l.098.001c.595 0 1.162-.214 1.607-.587a2.506 2.506 0 0 0 1.607.587c.595 0 1.163-.214 1.608-.587a2.506 2.506 0 0 0 1.607.587c.594 0 1.162-.214 1.607-.587a2.506 2.506 0 0 0 1.607.587c.594 0 1.162-.214 1.607-.587.215.18.459.323.72.423l-.96 1.984h-2.267a.644.644 0 1 0 0 1.289h5.328v1.464Z"/></g><defs><clipPath id="ea"><path transform="translate(0 .03)" d="M0 0h44v44H0z"/></clipPath></defs></svg><svg viewBox="0 0 44 45" id="icon_burgers" xmlns="http://www.w3.org/2000/svg"><g clip-path="url(#fa)"><path d="M44 20.366c0-1.69-1.09-3.128-2.602-3.654-.232-5.24-2.189-9.262-5.825-11.965C32.254 2.28 27.688 1.03 22 1.03c-5.688 0-10.254 1.25-13.573 3.717-3.636 2.703-5.593 6.725-5.825 11.965A3.873 3.873 0 0 0 0 20.366c0 .99.374 1.893.988 2.578A3.852 3.852 0 0 0 0 25.522c0 1.7 1.103 3.146 2.63 3.663.553 5.89 5.56 10.517 11.636 10.517h15.468c6.076 0 11.084-4.627 11.636-10.517A3.873 3.873 0 0 0 44 25.522c0-.99-.374-1.893-.988-2.578A3.851 3.851 0 0 0 44 20.366ZM22 3.608c7.393 0 16.151 2.279 16.803 12.89H5.197C5.849 5.887 14.607 3.608 22 3.608ZM3.867 19.077h36.266c.71 0 1.289.578 1.289 1.289 0 .71-.578 1.289-1.29 1.289H3.868a1.29 1.29 0 0 1-1.289-1.29c0-.71.578-1.288 1.29-1.288Zm25.867 18.046H14.266c-4.581 0-8.383-3.367-9.016-7.734h1.195c.862 0 1.134.293 1.677.877.667.718 1.58 1.701 3.566 1.701 2 0 2.889-.993 3.538-1.718.513-.572.77-.86 1.618-.86.848 0 1.105.288 1.617.86.65.725 1.54 1.718 3.539 1.718 2 0 2.89-.993 3.538-1.718.513-.572.77-.86 1.618-.86.848 0 1.105.288 1.618.86.65.725 1.539 1.718 3.538 1.718 2 0 2.89-.993 3.539-1.718.513-.572.77-.86 1.618-.86h1.281c-.633 4.367-4.435 7.735-9.016 7.735Zm10.399-10.312h-2.664c-2 0-2.89.993-3.539 1.718-.512.573-.77.86-1.617.86-.848 0-1.106-.287-1.618-.86-.65-.725-1.539-1.718-3.539-1.718s-2.889.993-3.538 1.718c-.513.573-.77.86-1.618.86-.848 0-1.105-.287-1.618-.86-.65-.725-1.538-1.718-3.538-1.718-2 0-2.89.993-3.539 1.718-.512.573-.77.86-1.617.86-.862 0-1.135-.293-1.677-.877-.667-.718-1.58-1.701-3.566-1.701H3.867a1.29 1.29 0 0 1-1.289-1.289c0-.71.578-1.29 1.29-1.29h36.265a1.29 1.29 0 0 1 0 2.578Z"/><path d="M14.266 13.92a1.289 1.289 0 1 0 0-2.578 1.289 1.289 0 0 0 0 2.578ZM29.734 13.92a1.289 1.289 0 1 0 0-2.578 1.289 1.289 0 0 0 0 2.578ZM24.578 11.342a1.289 1.289 0 1 0 0-2.578 1.289 1.289 0 0 0 0 2.578ZM19.422 8.764a1.289 1.289 0 1 0 0-2.578 1.289 1.289 0 0 0 0 2.578Z"/></g><defs><clipPath id="fa"><path transform="translate(0 .03)" d="M0 0h44v44H0z"/></clipPath></defs></svg><svg viewBox="0 0 44 45" id="icon_pizza" xmlns="http://www.w3.org/2000/svg"><g clip-path="url(#ga)"><path d="M43.745 43.782a.859.859 0 0 1-.892.198L7.159 31.253a4.698 4.698 0 0 1-4.256.338A4.706 4.706 0 0 1 .359 25.45a46.082 46.082 0 0 1 10.038-15.023A46.08 46.08 0 0 1 25.42.388 4.675 4.675 0 0 1 27.213.03c1.846 0 3.6 1.093 4.35 2.902a4.687 4.687 0 0 1-.026 3.65l12.418 36.31a.86.86 0 0 1-.21.89ZM12.563 31.355l3.783 1.349a2.186 2.186 0 0 0-.264-3.236 2.176 2.176 0 0 0-1.62-.433 2.176 2.176 0 0 0-1.451.838c-.329.427-.485.95-.448 1.482ZM29.974 3.59a2.985 2.985 0 0 0-3.896-1.614C15.075 6.534 6.505 15.104 1.947 26.107a2.962 2.962 0 0 0 0 2.282 2.963 2.963 0 0 0 1.614 1.614 2.963 2.963 0 0 0 2.282 0 2.963 2.963 0 0 0 1.614-1.614 38.432 38.432 0 0 1 8.373-12.53 38.434 38.434 0 0 1 12.53-8.373 2.985 2.985 0 0 0 1.614-3.896Zm7.635 26.06a2.176 2.176 0 0 0-1.685.855 2.176 2.176 0 0 0-.434 1.62 2.193 2.193 0 0 0 2.458 1.885c.37-.049.716-.192 1.012-.41l-1.35-3.95Zm1.922 5.62a3.909 3.909 0 1 1-2.493-7.29l-1.708-4.994-1.964 1.507a.86.86 0 0 1-1.047-1.364l2.424-1.86-4.442-12.99a4.68 4.68 0 0 1-1.282.795C19.91 12.846 12.817 19.94 9.044 29.047c-.13.317-.294.61-.482.882l2.301.82c.08-.693.347-1.354.783-1.922a3.883 3.883 0 0 1 3.11-1.53c.854 0 1.681.279 2.371.808a3.884 3.884 0 0 1 1.496 2.591c.123.93-.094 1.85-.581 2.613l10.682 3.809.405-.978a.86.86 0 0 1 1.588.658l-.372.898 11.406 4.066-2.22-6.491Z"/><path d="M9.281 20.975a.86.86 0 1 1 0 0ZM7.974 23.11a40.668 40.668 0 0 0-2.237 4.567.86.86 0 1 1-1.588-.658 42.391 42.391 0 0 1 2.332-4.76.86.86 0 1 1 1.493.85ZM26.893 33.031a3.918 3.918 0 0 1-4.386-3.365 3.914 3.914 0 0 1 3.88-4.42 3.918 3.918 0 0 1 3.871 3.4 3.914 3.914 0 0 1-3.365 4.385Zm1.661-4.162a2.195 2.195 0 0 0-2.458-1.886 2.193 2.193 0 0 0-1.885 2.458 2.194 2.194 0 0 0 2.457 1.886 2.193 2.193 0 0 0 1.886-2.458ZM26.669 22.341a3.918 3.918 0 0 1-4.386-3.365 3.883 3.883 0 0 1 .774-2.89 3.884 3.884 0 0 1 3.105-1.53 3.918 3.918 0 0 1 3.872 3.4 3.914 3.914 0 0 1-3.365 4.385Zm1.661-4.161a2.195 2.195 0 0 0-2.457-1.886 2.177 2.177 0 0 0-1.452.838 2.176 2.176 0 0 0-.434 1.62 2.195 2.195 0 0 0 2.458 1.885 2.193 2.193 0 0 0 1.885-2.457ZM21.001 25.902l-2.641.348a.86.86 0 1 1-.225-1.704l2.641-.348a.86.86 0 0 1 .225 1.704ZM19.662 19.56l-.234 1.772a.859.859 0 1 1-1.704-.224l.234-1.773a.86.86 0 0 1 1.704.225Z"/></g><defs><clipPath id="ga"><path transform="matrix(1 0 0 -1 0 44.03)" d="M0 0h44v44H0z"/></clipPath></defs></svg><svg viewBox="0 0 44 45" id="icon_sandwiches" xmlns="http://www.w3.org/2000/svg"><g clip-path="url(#ha)"><path d="M41.8 6.63h-1.467V5.163a2.2 2.2 0 0 0-2.2-2.2h-1.747L35.326.841A1.457 1.457 0 0 0 34.012.03H33c-.81 0-1.467.656-1.467 1.466v1.467h-8.066a2.2 2.2 0 0 0-2.2 2.2V6.63H19.8a2.2 2.2 0 0 0-2.2 2.2v1.466c0 .81.657 1.467 1.467 1.467h.077l.858 7.577-3.533-.83a11.105 11.105 0 0 0-.576-.814l-1.247-5.365a.733.733 0 0 0-.713-.568H9.72C7.73 10.011 5.382 9.219 3.61 9.74L2.532 8.567A1.448 1.448 0 0 0 .928 8.2c-.56.216-.93.755-.928 1.356v32.288a2.188 2.188 0 0 0 2.185 2.186h35.948c.373 0 .686-.28.728-.65l3.593-31.617h.08c.81 0 1.466-.657 1.466-1.467V8.83a2.2 2.2 0 0 0-2.2-2.2ZM33 1.496h1.013l.734 1.467H33V1.496ZM22.733 5.163c0-.405.329-.733.734-.733h14.666c.405 0 .734.328.734.733V6.63H22.733V5.163Zm-2.053 15.84.046.009.593.14.397 4.162a6.758 6.758 0 0 0-3.94-1.242 6.28 6.28 0 0 0-.411-3.848l3.315.779Zm1.433 6.486.01.008c.265.246.517.506.755.78a8.686 8.686 0 0 1 1.876 3.386c.124.438.188.89.19 1.345l-6.85-7.47c1.524.17 2.943.86 4.019 1.951Zm-7.728-9.32v-.001c1.583 1.819 2.32 4.003 1.97 5.471l-7.463-8.136c1.505-.337 3.795.72 5.493 2.666Zm-1.038-4.94.586 2.498a9.347 9.347 0 0 0-1.913-1.155 11.565 11.565 0 0 0-.928-1.342h2.255Zm-3.687.546h.003c.06.07.11.147.17.22a3.99 3.99 0 0 0-2.012.338l-3.015-3.287c1.474.021 3.398 1.058 4.854 2.73Zm21.077 28.357a.717.717 0 0 1-.656.431H2.185a.719.719 0 0 1-.718-.719l-.014-32.28 14.72 16.047v.004l8.644 9.424.01.011 4.74 5.172c.018.021.035.044.055.065l.983 1.072a.716.716 0 0 1 .132.773Zm-4.54-7.757a4.61 4.61 0 0 0 .203-1.352c.385.325.744.68 1.074 1.061.41.468.773.975 1.086 1.512.428.72.73 1.508.895 2.33l-3.257-3.551Zm11.281 8.188h-5.342c.275-.76.1-1.61-.45-2.2l-.74-.807a6.691 6.691 0 0 0-.571-3.593h7.854l-.75 6.6Zm.917-8.067h-8.8a11.218 11.218 0 0 0-1.009-1.374 10.687 10.687 0 0 0-2.512-2.136 10.145 10.145 0 0 0-2.09-3.676c-.22-.25-.44-.482-.671-.706l-.58-6.11a.733.733 0 0 0-.56-.645l-.65-.154-.154-1.332h18.86l-1.834 16.133Zm2-17.6H21.203l-.58-5.133h20.357l-.583 5.133Zm2.138-6.6H19.067V8.83c0-.405.328-.734.733-.734h22c.405 0 .733.329.733.734v1.466Z"/><path d="M31.1 32.297c.042 0 .083-.006.124-.008.011 0 .023.008.034.008a.692.692 0 0 0 .109-.016 3.967 3.967 0 0 0 2.899-1.568 5.101 5.101 0 0 0 .714-4.475c-.102-.38-.195-.752-.285-1.112-.572-2.293-1.119-4.456-3.435-4.553-.024 0-.046-.005-.07-.005-.023 0-.057-.005-.09-.005-2.591 0-4.7 2.632-4.7 5.867s2.109 5.867 4.7 5.867Zm.568-10.157c.758.298 1.092 1.291 1.604 3.34.092.368.187.752.293 1.141a3.656 3.656 0 0 1-.464 3.2 2.59 2.59 0 0 1-.876.734 10.656 10.656 0 0 0-.733-3.68c-.073-.23-.147-.45-.211-.66-.427-1.389.073-3.188.387-4.075Zm-1.576.11a8.05 8.05 0 0 0-.212 4.393c.068.22.143.448.22.685.367 1.12.807 2.472.627 3.468-1.607-.25-2.86-2.112-2.86-4.366 0-1.947.935-3.6 2.225-4.18ZM3.881 38.593l-.518.518A.733.733 0 1 0 4.4 40.148l.518-.518a.733.733 0 0 0-1.037-1.037ZM10.893 33.656a.734.734 0 0 0-1.038-1.038l-.518.519a.733.733 0 1 0 1.037 1.038l.519-.519ZM4.4 31.778l-.519.519a.733.733 0 1 0 1.037 1.036l.519-.518A.733.733 0 0 0 4.4 31.778ZM4.4 26.645l-.519.518A.733.733 0 1 0 4.918 28.2l.519-.518A.733.733 0 0 0 4.4 26.645ZM11 38.593l-.518.518a.733.733 0 1 0 1.036 1.037l.519-.518A.733.733 0 0 0 11 38.593ZM16.348 38.593l-.518.518a.734.734 0 1 0 1.037 1.037l.518-.518a.733.733 0 0 0-1.037-1.037Z"/></g><defs><clipPath id="ha"><path transform="translate(0 .03)" d="M0 0h44v44H0z"/></clipPath></defs></svg><svg viewBox="0 0 44 44" id="icon_setmenu" xmlns="http://www.w3.org/2000/svg"><g clip-path="url(#ia)"><path d="m31.158 14.687-.47-1.531c-.599-1.74-2.51-2.671-4.27-2.08a3.347 3.347 0 0 0-2.105 2.08l-.47 1.531a8.506 8.506 0 0 0-.244 3.987 3.754 3.754 0 0 0 1.954 2.613l-.527 11.65c-.07.65.143 1.3.587 1.784a2.583 2.583 0 0 0 3.78 0 2.248 2.248 0 0 0 .587-1.736l-.53-11.7a3.753 3.753 0 0 0 1.95-2.611 8.506 8.506 0 0 0-.242-3.987Zm-1.202 3.735a2.307 2.307 0 0 1-1.522 1.731.724.724 0 0 0-.474.711l.557 12.236a.833.833 0 0 1-.22.657 1.142 1.142 0 0 1-1.594 0 .863.863 0 0 1-.216-.705l.553-12.188a.725.725 0 0 0-.474-.71 2.307 2.307 0 0 1-1.522-1.732 7.068 7.068 0 0 1 .202-3.31l.47-1.532a1.908 1.908 0 0 1 3.568 0l.47 1.532a7.078 7.078 0 0 1 .202 3.31ZM19.8 10.902a.73.73 0 0 0-.733.725v6.223l-1.986 1.962a.72.72 0 0 0-.214.549l.641 12.684a.98.98 0 0 1-.277.739c-.401.4-1.055.403-1.46.006l-.007-.006a.98.98 0 0 1-.277-.739l.646-12.684a.72.72 0 0 0-.214-.549l-1.986-1.962v-6.223a.73.73 0 0 0-.733-.725.73.73 0 0 0-.733.725v6.523a.72.72 0 0 0 .214.513l1.97 1.947-.625 12.365c-.067 1.35.987 2.5 2.354 2.565 1.366.066 2.528-.976 2.594-2.327.004-.079.004-.158 0-.238L18.35 20.61l1.97-1.947a.72.72 0 0 0 .214-.513v-6.523a.73.73 0 0 0-.733-.725Z"/><path d="M15.4 10.902a.73.73 0 0 0-.733.725v5.798c0 .4.328.725.733.725a.73.73 0 0 0 .733-.724v-5.8a.73.73 0 0 0-.733-.724ZM17.6 10.902a.73.73 0 0 0-.733.725v5.798c0 .4.328.725.733.725a.73.73 0 0 0 .733-.724v-5.8a.73.73 0 0 0-.733-.724Z"/><path d="M22 .03C9.85.03 0 9.765 0 21.775c0 12.009 9.85 21.744 22 21.744s22-9.735 22-21.744C43.986 9.77 34.145.043 22 .03Zm0 42.04c-11.34 0-20.533-9.087-20.533-20.296C1.467 10.566 10.66 1.48 22 1.48c11.34 0 20.533 9.087 20.533 20.296C42.52 32.977 33.335 42.056 22 42.069Z"/><path d="M24.38 35.38a.731.731 0 0 0-.829-.647l.003-.001a13.618 13.618 0 0 1-3.108 0 .732.732 0 0 0-.814.636.727.727 0 0 0 .643.805c1.145.132 2.302.132 3.447 0a.727.727 0 0 0 .658-.792ZM33.22 12.434a.74.74 0 0 0-1.033-.09.72.72 0 0 0-.091 1.024 12.936 12.936 0 0 1-.778 17.648.719.719 0 0 0-.002 1.025.74.74 0 0 0 1.037.002 14.374 14.374 0 0 0 .867-19.609ZM17.086 9.611h-.004.004ZM25.46 7.683a14.96 14.96 0 0 0-8.633.524.722.722 0 0 0 .258 1.403.741.741 0 0 0 .256-.047 13.47 13.47 0 0 1 7.773-.47.724.724 0 1 0 .345-1.41ZM12.65 30.98a12.887 12.887 0 0 1-3.85-9.206 12.85 12.85 0 0 1 2.523-7.674.72.72 0 0 0-.145-1.015.739.739 0 0 0-1.04.161 14.371 14.371 0 0 0 1.472 18.76.74.74 0 0 0 1.039 0 .72.72 0 0 0 0-1.026Z"/></g><defs><clipPath id="ia"><path transform="translate(0 .03)" d="M0 0h44v43.489H0z"/></clipPath></defs></svg><svg viewBox="0 0 20 20" id="instagram" xmlns="http://www.w3.org/2000/svg"><path d="M9.748 6.528A3.258 3.258 0 0 0 6.496 9.78a3.258 3.258 0 0 0 3.252 3.251 3.258 3.258 0 0 0 3.25-3.251 3.258 3.258 0 0 0-3.25-3.252Zm9.751 3.252c0-1.347.013-2.68-.063-4.025-.076-1.56-.432-2.946-1.573-4.088C16.719.523 15.336.17 13.775.094 12.428.018 11.094.03 9.75.03 8.404.03 7.07.018 5.725.094 4.165.17 2.78.526 1.637 1.667.493 2.811.14 4.194.064 5.755-.01 7.102.001 8.435.001 9.78c0 1.344-.012 2.68.063 4.024.076 1.561.432 2.947 1.573 4.088 1.144 1.144 2.527 1.498 4.088 1.574 1.347.075 2.681.063 4.025.063 1.346 0 2.68.012 4.025-.063 1.56-.076 2.946-.432 4.088-1.574 1.144-1.144 1.497-2.527 1.573-4.088.078-1.344.063-2.678.063-4.024Zm-9.751 5.003A4.996 4.996 0 0 1 4.745 9.78a4.996 4.996 0 0 1 5.003-5.003A4.996 4.996 0 0 1 14.75 9.78a4.996 4.996 0 0 1-5.002 5.003Zm5.207-9.042a1.167 1.167 0 0 1-1.168-1.169c0-.646.522-1.168 1.168-1.168a1.167 1.167 0 0 1 .827 1.995 1.167 1.167 0 0 1-.827.342Z"/></svg><svg viewBox="0 0 21 21" id="searchbtn" xmlns="http://www.w3.org/2000/svg"><ellipse cx="9.767" cy="9.63" rx="8.989" ry="8.884"/><path d="m16.018 16.27 3.524 3.475"/></svg><svg viewBox="0 0 21 17" id="twitter" xmlns="http://www.w3.org/2000/svg"><path d="M20.526 2.01a8.435 8.435 0 0 1-2.422.652 4.196 4.196 0 0 0 1.85-2.319 8.304 8.304 0 0 1-2.67 1.016A4.196 4.196 0 0 0 14.212.03a4.205 4.205 0 0 0-4.206 4.21c0 .325.04.65.104.964A11.954 11.954 0 0 1 1.436.799a4.177 4.177 0 0 0-.573 2.124c0 1.46.743 2.748 1.875 3.506a4.243 4.243 0 0 1-1.902-.536v.052a4.207 4.207 0 0 0 3.372 4.13 4.451 4.451 0 0 1-1.107.143c-.274 0-.533-.027-.795-.064a4.214 4.214 0 0 0 3.933 2.918 8.43 8.43 0 0 1-5.223 1.798c-.352 0-.678-.012-1.016-.052a11.911 11.911 0 0 0 6.46 1.887c7.737 0 11.97-6.408 11.97-11.971 0-.183 0-.365-.013-.548a9.06 9.06 0 0 0 2.11-2.175Z"/></svg></svg>